<?xml version="1.0" encoding="UTF-8" standalone="no"?>
<!-- Created with Inkscape (http://www.inkscape.org/) -->

<svg
   width="171.97943mm"
   height="52.916664mm"
   viewBox="0 0 171.97943 52.916664"
   version="1.1"
   id="svg5"
   inkscape:version="1.1.2 (b8e25be833, 2022-02-05)"
   sodipodi:docname="Spotify Premium (Stacked).svg"
   xmlns:inkscape="http://www.inkscape.org/namespaces/inkscape"
   xmlns:sodipodi="http://sodipodi.sourceforge.net/DTD/sodipodi-0.dtd"
   xmlns="http://www.w3.org/2000/svg"
   xmlns:svg="http://www.w3.org/2000/svg">
  <sodipodi:namedview
     id="namedview7"
     pagecolor="#ffffff"
     bordercolor="#666666"
     borderopacity="1.0"
     inkscape:pageshadow="2"
     inkscape:pageopacity="0.0"
     inkscape:pagecheckerboard="0"
     inkscape:document-units="mm"
     showgrid="false"
     inkscape:zoom="0.64052329"
     inkscape:cx="259.94371"
     inkscape:cy="465.2446"
     inkscape:window-width="1920"
     inkscape:window-height="1017"
     inkscape:window-x="-8"
     inkscape:window-y="-8"
     inkscape:window-maximized="1"
     inkscape:current-layer="layer1" />
  <defs
     id="defs2" />
  <g
     inkscape:label="Layer 1"
     inkscape:groupmode="layer"
     id="layer1"
     transform="translate(-30.083999,-27.654323)">
    <g
       style="fill:#1ed760;fill-opacity:1"
       id="g881"
       transform="matrix(0.26458333,0,0,0.26458333,30.083999,27.654323)">
      <path
         fill-rule="evenodd"
         clip-rule="evenodd"
         d="M 159.154,88.652 C 126.92,69.508 73.75,67.749 42.979,77.088 38.037,78.586 32.81,75.798 31.314,70.856 c -1.499,-4.944 1.29,-10.166 6.235,-11.668 35.323,-10.723 94.043,-8.651 131.153,13.377 4.445,2.638 5.902,8.378 3.267,12.817 -2.637,4.443 -8.38,5.908 -12.815,3.27 z m -1.055,28.353 c -2.262,3.67 -7.06,4.82 -10.725,2.566 C 120.5,103.054 79.522,98.269 47.729,107.92 c -4.124,1.245 -8.479,-1.08 -9.73,-5.195 -1.244,-4.123 1.083,-8.47 5.198,-9.723 36.32,-11.022 81.47,-5.684 112.337,13.285 3.665,2.256 4.818,7.057 2.565,10.718 z m -12.237,27.23 c -1.797,2.947 -5.633,3.87 -8.57,2.074 -23.483,-14.352 -53.04,-17.594 -87.848,-9.642 -3.355,0.77 -6.699,-1.334 -7.464,-4.687 -0.768,-3.355 1.327,-6.697 4.689,-7.461 38.091,-8.71 70.768,-4.962 97.125,11.144 2.94,1.795 3.865,5.634 2.068,8.572 z M 100,0 C 44.774,0 0,44.77 0,99.999 0,155.231 44.774,200 100,200 155.23,200 200,155.231 200,99.999 200,44.77 155.23,0 100,0 Z"
         fill="#0a0b09"
         id="path824"
         style="fill:#1ed760;fill-opacity:1" />
      <path
         fill-rule="evenodd"
         clip-rule="evenodd"
         d="m 260.514,48.986 c -14.01,-3.341 -16.505,-5.687 -16.505,-10.613 0,-4.655 4.383,-7.787 10.899,-7.787 6.319,0 12.582,2.378 19.151,7.277 0.198,0.148 0.448,0.206 0.691,0.168 0.245,-0.036 0.464,-0.172 0.607,-0.373 l 6.842,-9.643 c 0.28,-0.399 0.203,-0.946 -0.175,-1.249 -7.817,-6.273 -16.619,-9.322 -26.907,-9.322 -15.128,0 -25.693,9.077 -25.693,22.067 0,13.928 9.113,18.86 24.865,22.669 13.406,3.088 15.67,5.673 15.67,10.299 0,5.124 -4.575,8.311 -11.939,8.311 -8.178,0 -14.848,-2.755 -22.31,-9.217 -0.185,-0.158 -0.44,-0.232 -0.673,-0.219 -0.247,0.021 -0.473,0.134 -0.63,0.324 l -7.67,9.128 c -0.322,0.379 -0.282,0.945 0.09,1.272 8.683,7.752 19.36,11.845 30.882,11.845 16.301,0 26.834,-8.907 26.834,-22.692 0,-11.651 -6.959,-18.093 -24.029,-22.245 z"
         fill="#0a0b09"
         id="path826"
         style="fill:#1ed760;fill-opacity:1" />
      <path
         fill-rule="evenodd"
         clip-rule="evenodd"
         d="m 333.256,64.601 c 0,9.836 -6.06,16.701 -14.737,16.701 -8.578,0 -15.049,-7.177 -15.049,-16.701 0,-9.525 6.471,-16.702 15.049,-16.702 8.537,0 14.737,7.022 14.737,16.702 z M 321.423,35.169 c -7.065,0 -12.86,2.782 -17.64,8.485 v -6.418 c 0,-0.507 -0.412,-0.921 -0.917,-0.921 h -12.545 c -0.507,0 -0.917,0.414 -0.917,0.921 v 71.317 c 0,0.506 0.41,0.918 0.917,0.918 h 12.545 c 0.505,0 0.917,-0.412 0.917,-0.918 V 86.041 c 4.78,5.365 10.576,7.985 17.64,7.985 13.128,0 26.418,-10.107 26.418,-29.425 0,-19.324 -13.29,-29.432 -26.418,-29.432 z"
         fill="#0a0b09"
         id="path828"
         style="fill:#1ed760;fill-opacity:1" />
      <path
         fill-rule="evenodd"
         clip-rule="evenodd"
         d="m 381.911,81.406 c -9,0 -15.78,-7.225 -15.78,-16.805 0,-9.621 6.55,-16.602 15.57,-16.602 9.05,0 15.88,7.225 15.88,16.812 0,9.618 -6.59,16.595 -15.67,16.595 z m 0,-46.237 c -16.911,0 -30.156,13.018 -30.156,29.642 0,16.441 13.155,29.325 29.946,29.325 16.97,0 30.25,-12.977 30.25,-29.535 0,-16.505 -13.19,-29.432 -30.04,-29.432 z"
         fill="#0a0b09"
         id="path830"
         style="fill:#1ed760;fill-opacity:1" />
      <path
         fill-rule="evenodd"
         clip-rule="evenodd"
         d="m 448.061,36.316 h -13.81 V 22.201 c 0,-0.505 -0.41,-0.918 -0.91,-0.918 h -12.55 c -0.5,0 -0.91,0.413 -0.91,0.918 v 14.115 h -6.04 c -0.5,0 -0.91,0.413 -0.91,0.918 v 10.782 c 0,0.507 0.41,0.92 0.91,0.92 h 6.04 v 27.897 c 0,11.273 5.61,16.99 16.67,16.99 4.5,0 8.23,-0.928 11.75,-2.924 0.29,-0.159 0.47,-0.468 0.47,-0.796 V 79.836 c 0,-0.316 -0.17,-0.615 -0.44,-0.781 -0.27,-0.172 -0.61,-0.18 -0.89,-0.042 -2.42,1.216 -4.76,1.777 -7.37,1.777 -4.02,0 -5.82,-1.827 -5.82,-5.924 v -25.93 h 13.81 c 0.5,0 0.91,-0.413 0.91,-0.92 V 37.234 c 0,-0.505 -0.41,-0.918 -0.91,-0.918 z"
         fill="#0a0b09"
         id="path832"
         style="fill:#1ed760;fill-opacity:1" />
      <path
         fill-rule="evenodd"
         clip-rule="evenodd"
         d="m 496.151,36.371 v -1.734 c 0,-5.1 1.96,-7.373 6.35,-7.373 2.61,0 4.71,0.52 7.06,1.303 0.29,0.092 0.6,0.047 0.83,-0.127 0.24,-0.172 0.38,-0.451 0.38,-0.746 V 17.123 c 0,-0.404 -0.26,-0.762 -0.65,-0.881 -2.48,-0.74 -5.66,-1.498 -10.42,-1.498 -11.59,0 -17.72,6.525 -17.72,18.861 v 2.657 h -6.02 c -0.51,0 -0.92,0.412 -0.92,0.919 v 10.835 c 0,0.506 0.41,0.92 0.92,0.92 h 6.02 v 43.03 c 0,0.506 0.41,0.92 0.92,0.92 h 12.54 c 0.51,0 0.92,-0.414 0.92,-0.92 v -43.03 h 11.71 l 17.95,43.02 c -2.04,4.52 -4.04,5.418 -6.78,5.418 -2.21,0 -4.54,-0.658 -6.91,-1.962 -0.23,-0.123 -0.49,-0.143 -0.74,-0.068 -0.23,0.085 -0.44,0.263 -0.54,0.495 l -4.25,9.328 c -0.2,0.44 -0.03,0.959 0.4,1.187 4.43,2.405 8.44,3.43 13.39,3.43 9.27,0 14.39,-4.315 18.9,-15.923 l 21.76,-56.238 c 0.11,-0.282 0.08,-0.602 -0.09,-0.854 -0.18,-0.248 -0.45,-0.398 -0.76,-0.398 h -13.06 c -0.39,0 -0.74,0.248 -0.87,0.616 l -13.37,38.212 -14.66,-38.239 c -0.13,-0.355 -0.48,-0.589 -0.86,-0.589 z"
         fill="#0a0b09"
         id="path834"
         style="fill:#1ed760;fill-opacity:1" />
      <path
         fill-rule="evenodd"
         clip-rule="evenodd"
         d="m 468.271,36.316 h -12.54 c -0.51,0 -0.92,0.413 -0.92,0.918 v 54.732 c 0,0.507 0.41,0.918 0.92,0.918 h 12.54 c 0.51,0 0.92,-0.411 0.92,-0.918 V 37.234 c 0,-0.505 -0.41,-0.918 -0.92,-0.918 z"
         fill="#0a0b09"
         id="path836"
         style="fill:#1ed760;fill-opacity:1" />
      <path
         fill-rule="evenodd"
         clip-rule="evenodd"
         d="m 462.061,11.395 c -4.97,0 -9,4.023 -9,8.993 0,4.972 4.03,9 9,9 4.97,0 9,-4.028 9,-9 0,-4.97 -4.03,-8.993 -9,-8.993 z"
         fill="#0a0b09"
         id="path838"
         style="fill:#1ed760;fill-opacity:1" />
      <path
         fill-rule="evenodd"
         clip-rule="evenodd"
         d="m 242.14,125.06 c 0,-0.51 0.413,-0.922 0.923,-0.922 l 11.645,0.051 c 9.453,0 14.876,4.432 14.876,12.366 0,7.268 -5.979,12.153 -14.876,12.153 l -11.645,-0.052 c -0.51,0 -0.923,-0.413 -0.923,-0.923 z m 13.615,-14.468 -27.442,-0.052 c -0.51,0 -0.923,0.411 -0.923,0.921 v 73.329 c 0,0.51 0.413,0.921 0.923,0.921 h 12.905 c 0.508,0 0.922,-0.411 0.922,-0.921 v -22.641 l 12.15,0.054 c 18.378,0 30.253,-10.193 30.253,-26.174 0,-15.453 -11.3,-25.437 -28.788,-25.437 z"
         fill="#0a0b09"
         id="path842"
         style="fill:#1ed760;fill-opacity:1" />
      <path
         fill-rule="evenodd"
         clip-rule="evenodd"
         d="m 353.858,139.635 c 8.176,0 12.013,6.372 12.973,12.686 h -26.225 c 1.41,-7.743 6.523,-12.686 13.252,-12.686 z m 0.106,-12.237 c -15.936,0 -27.953,12.782 -27.953,29.734 v 0.21 c 0,17.166 12.328,29.626 29.313,29.626 8.627,0 15.857,-2.928 21.537,-8.71 0.38,-0.393 1.22,-1.345 1.79,-2.003 0.33,-0.382 0.29,-0.955 -0.09,-1.29 l -7.49,-6.644 c -0.34,-0.301 -0.84,-0.302 -1.17,0.004 -0.82,0.739 -2.2,2.005 -2.35,2.118 -3.73,2.982 -7.457,4.288 -12.017,4.288 -7.655,0 -13.24,-4.629 -14.801,-12.163 h 40.378 l 0.09,-1.143 c 0.1,-1.172 0.19,-2.264 0.19,-3.352 0,-15.268 -8.48,-30.675 -27.427,-30.675 z"
         fill="#0a0b09"
         id="path844"
         style="fill:#1ed760;fill-opacity:1" />
      <path
         fill-rule="evenodd"
         clip-rule="evenodd"
         d="m 453.491,127.398 c -7.45,0 -13.55,2.946 -18.6,8.993 -3.43,-5.813 -9.27,-8.993 -16.59,-8.993 -7.81,0 -12.61,3.779 -15.92,7.734 v -5.66 c 0,-0.51 -0.42,-0.922 -0.93,-0.922 h -12.69 c -0.51,0 -0.92,0.412 -0.92,0.922 v 55.318 c 0,0.509 0.41,0.922 0.92,0.922 h 12.69 c 0.51,0 0.93,-0.413 0.93,-0.922 v -31.113 c 0,-7.83 4.27,-12.889 10.9,-12.889 6.52,0 10.27,4.546 10.27,12.469 v 31.533 c 0,0.509 0.41,0.922 0.92,0.922 h 12.7 c 0.5,0 0.92,-0.413 0.92,-0.922 v -31.218 c 0,-8.006 4.07,-12.784 10.89,-12.784 8.49,0 10.27,6.837 10.27,12.574 v 31.428 c 0,0.509 0.42,0.922 0.93,0.922 h 12.69 c 0.51,0 0.93,-0.413 0.93,-0.922 v -35.305 c 0,-13.828 -7.6,-22.087 -20.31,-22.087 z"
         fill="#0a0b09"
         id="path846"
         style="fill:#1ed760;fill-opacity:1" />
      <path
         fill-rule="evenodd"
         clip-rule="evenodd"
         d="m 541.531,160.692 c 0,7.767 -4.53,12.784 -11.53,12.784 -7.03,0 -10.9,-4.467 -10.9,-12.576 v -31.428 c 0,-0.51 -0.41,-0.921 -0.92,-0.921 h -12.69 c -0.51,0 -0.93,0.411 -0.93,0.921 v 35.198 c 0,13.69 7.91,22.193 20.63,22.193 6.61,0 11.98,-2.578 16.34,-7.863 v 5.789 c 0,0.51 0.41,0.923 0.92,0.923 h 12.7 c 0.51,0 0.92,-0.413 0.92,-0.923 v -55.317 c 0,-0.51 -0.41,-0.921 -0.92,-0.921 h -12.7 c -0.51,0 -0.92,0.411 -0.92,0.921 z"
         fill="#0a0b09"
         id="path848"
         style="fill:#1ed760;fill-opacity:1" />
      <path
         fill-rule="evenodd"
         clip-rule="evenodd"
         d="m 629.691,127.398 c -7.45,0 -13.54,2.946 -18.59,8.993 -3.43,-5.813 -9.27,-8.993 -16.59,-8.993 -7.82,0 -12.61,3.777 -15.93,7.732 v -5.658 c 0,-0.51 -0.41,-0.922 -0.92,-0.922 h -12.69 c -0.51,0 -0.93,0.412 -0.93,0.922 v 55.318 c 0,0.509 0.42,0.922 0.93,0.922 h 12.69 c 0.51,0 0.92,-0.413 0.92,-0.922 v -31.113 c 0,-7.83 4.28,-12.889 10.9,-12.889 6.53,0 10.27,4.546 10.27,12.469 v 31.533 c 0,0.509 0.41,0.922 0.92,0.922 h 12.7 c 0.51,0 0.92,-0.413 0.92,-0.922 v -31.218 c 0,-8.006 4.08,-12.784 10.9,-12.784 8.49,0 10.27,6.837 10.27,12.574 v 31.428 c 0,0.509 0.41,0.922 0.92,0.922 h 12.7 c 0.51,0 0.92,-0.413 0.92,-0.922 v -35.305 c 0,-13.828 -7.59,-22.087 -20.31,-22.087 z"
         fill="#0a0b09"
         id="path850"
         style="fill:#1ed760;fill-opacity:1" />
      <path
         fill-rule="evenodd"
         clip-rule="evenodd"
         d="m 323.151,127.483 h -1.703 c -7.442,0.055 -13.534,3.718 -17.502,10.484 v -8.495 c 0,-0.509 -0.413,-0.922 -0.923,-0.922 h -12.697 c -0.508,0 -0.922,0.413 -0.922,0.922 v 55.318 c 0,0.508 0.414,0.922 0.922,0.922 h 12.697 c 0.51,0 0.923,-0.414 0.923,-0.922 v -21.061 c 0,-13.08 6.3,-20.679 17.312,-20.944 0.003,-0.002 0.016,-0.009 0.02,-0.009 h 1.873 c 0.417,0 0.753,-0.337 0.753,-0.752 v -13.788 c 0,-0.416 -0.336,-0.753 -0.753,-0.753 z"
         fill="#0a0b09"
         id="path852"
         style="fill:#1ed760;fill-opacity:1" />
      <path
         fill-rule="evenodd"
         clip-rule="evenodd"
         d="m 495.461,128.919 h -12.55 c -0.51,0 -0.92,0.413 -0.92,0.918 v 54.731 c 0,0.507 0.41,0.919 0.92,0.919 h 12.55 c 0.5,0 0.92,-0.412 0.92,-0.919 v -54.731 c 0,-0.505 -0.42,-0.918 -0.92,-0.918 z"
         fill="#0a0b09"
         id="path854"
         style="fill:#1ed760;fill-opacity:1" />
      <path
         fill-rule="evenodd"
         clip-rule="evenodd"
         d="m 489.251,103.998 c -4.97,0 -9,4.023 -9,8.993 0,4.972 4.03,9 9,9 4.97,0 8.99,-4.028 8.99,-9 0,-4.97 -4.02,-8.993 -8.99,-8.993 z"
         fill="#0a0b09"
         id="path856"
         style="fill:#1ed760;fill-opacity:1" />
    </g>
  </g>
</svg>
